<?xml version="1.0" encoding="utf-8"?>
<!-- Svg Vector Icons : http://www.onlinewebfonts.com/icon -->
<!DOCTYPE svg PUBLIC "-//W3C//DTD SVG 1.1//EN" "http://www.w3.org/Graphics/SVG/1.1/DTD/svg11.dtd">
<svg version="1.1" xmlns="http://www.w3.org/2000/svg" xmlns:xlink="http://www.w3.org/1999/xlink" x="0px" y="0px" viewBox="0 0 256 256" enable-background="new 0 0 256 256" xml:space="preserve">
<metadata> Svg Vector Icons : http://www.onlinewebfonts.com/icon </metadata>
<g><g><g><path fill="currentColor" d="M120.3,243.7c6,0,10.9-4.8,10.9-11.1V23.3c0-6.1-5-11.1-10.9-11.1H87.1c-6,0-10.9,4.8-10.9,11.1v209.4c0,6.1,5,11.1,10.9,11.1H120.3L120.3,243.7z M87.1,23.3c0-0.1,33.1,0,33.1,0c-0.1,0-0.1,209.4-0.1,209.4c0,0.1-33.1,0-33.1,0C87.1,232.7,87.1,23.3,87.1,23.3z"/><path fill="#000000" d="M205.8,244.1l32.1-8.6c5.8-1.6,9.3-7.5,7.7-13.5L191.4,19.8c-1.6-5.9-7.7-9.4-13.4-7.8l-32.1,8.6c-5.8,1.6-9.3,7.5-7.7,13.5l54.2,202.2C193.9,242.1,200,245.6,205.8,244.1z M180.7,22.6c-0.1,0,54.1,202.3,54.1,202.3c0,0.1-32,8.6-32,8.6c0.1,0-54.1-202.3-54.1-202.3C148.8,31.1,180.7,22.6,180.7,22.6z"/><path fill="#000000" d="M54.2,243.7c6,0,10.9-4.8,10.9-11.1V23.3c0-6.1-5-11.1-10.9-11.1H20.9c-6,0-10.9,4.8-10.9,11.1v209.4c0,6.1,5,11.1,10.9,11.1H54.2L54.2,243.7z M21,23.3c0-0.1,33.1,0,33.1,0C54,23.3,54,232.7,54,232.7c0,0.1-33.1,0-33.1,0C21,232.7,21,23.3,21,23.3z"/></g><g></g><g></g><g></g><g></g><g></g><g></g><g></g><g></g><g></g><g></g><g></g><g></g><g></g><g></g><g></g></g></g>
</svg>